<?xml version="1.0" encoding="utf-8"?>
<!-- Generator: Adobe Illustrator 25.5.0, SVG Export Plug-In . SVG Version: 6.00 Build 0)  -->
<svg version="1.1" id="Layer_1" xmlns="http://www.w3.org/2000/svg" xmlns:xlink="http://www.w3.org/1999/xlink" x="0px" y="0px"
	 viewBox="0 0 1226 246" style="enable-background:new 0 0 1226 246;" xml:space="preserve">
<style type="text/css">
	.st0{fill:none;}
</style>
<g>
	<rect x="-0.72" y="0.7" class="st0" width="1148.55" height="224.45"/>
	<path d="M9.82,24.41h68.24c40.84,0,70.08,14.49,70.08,48.21c0,34.25-33.46,50.32-63.76,50.58l-12.12-6.06
		c38.46,0,63.49-15.81,63.49-42.94c0-27.66-21.6-42.42-59.01-42.42H50.13v167.03h33.99v7.38H9.82v-7.38h28.72V31.79H9.82V24.41z"/>
	<path d="M204.78,86.59c30.03,0,58.22,24.77,58.22,61.12c0,36.36-28.19,61.12-58.22,61.12c-30.03,0-58.22-24.77-58.22-61.12
		C146.55,111.35,174.74,86.59,204.78,86.59z M204.78,202.25c26.35,0,46.63-23.98,46.63-54.54s-20.29-54.54-46.63-54.54
		c-26.35,0-46.63,23.97-46.63,54.54S178.43,202.25,204.78,202.25z"/>
	<path d="M266.69,97.65l33.72-13.7v25.82h7.9c15.02-17.92,22.66-23.18,31.88-23.18c6.85,0,11.86,4.48,11.86,10.54
		s-4.22,10.54-8.43,12.91l-17.39-12.38l-25.82,22.92v78.51h31.35v7.11h-62.44v-7.11h20.55v-93.53L266.69,97.65z"/>
	<path d="M389.73,70.78v21.6h47.42l-6.85,7.11h-40.57v73.77c0,18.18,10.27,26.08,23.97,26.08c10.8,0,20.55-3.95,28.45-13.17
		c-6.59,15.02-19.23,22.66-33.72,22.66c-14.75,0-28.72-9.48-28.72-28.45l1.32-80.88h-19.76L389.73,70.78z"/>
	<path d="M471.92,106.35l-20.02-7.9l20.02-12.12C477.46,41.8,499.59,0.7,536.21,0.7c9.75,0,14.75,4.74,14.75,11.59
		c0,5.27-4.22,10.27-8.96,11.86L519.08,7.29c-18.44,10.8-36.62,43.47-36.62,85.1h38.2l-6.85,6.85h-31.35v99.85h31.35v7.11h-62.44
		v-7.11h20.55V106.35z"/>
	<path d="M573.09,86.59c30.03,0,58.22,24.77,58.22,61.12c0,36.36-28.19,61.12-58.22,61.12c-30.03,0-58.22-24.77-58.22-61.12
		C514.86,111.35,543.05,86.59,573.09,86.59z M573.09,202.25c26.35,0,46.63-23.98,46.63-54.54s-20.29-54.54-46.63-54.54
		c-26.35,0-46.63,23.97-46.63,54.54S546.74,202.25,573.09,202.25z"/>
	<path d="M657.92,22.3l-23.18-7.9l33.72-13.7v198.38h20.55v7.11h-51.64v-7.11h20.55V22.3z"/>
	<path d="M726.42,105.56l-23.18-7.9l33.72-13.7v115.13h20.55v7.11h-51.64v-7.11h20.55V105.56z M717.2,37.85
		c0-6.06,4.74-10.8,10.8-10.8s10.8,4.74,10.8,10.8s-4.74,10.8-10.8,10.8S717.2,43.91,717.2,37.85z"/>
	<path d="M819.29,86.59c30.03,0,58.22,24.77,58.22,61.12c0,36.36-28.19,61.12-58.22,61.12s-58.22-24.77-58.22-61.12
		C761.06,111.35,789.25,86.59,819.29,86.59z M819.29,202.25c26.35,0,46.63-23.98,46.63-54.54s-20.29-54.54-46.63-54.54
		s-46.63,23.97-46.63,54.54S792.94,202.25,819.29,202.25z"/>
</g>
</svg>
